HIERARCHY
ROOT hip
{
  OFFSET 0 0 0
  CHANNELS 6 Xposition Yposition Zposition Zrotation Yrotation Xrotation
  JOINT abdomen
  {
    OFFSET 0 20.6881 -0.73152
    CHANNELS 3 Zrotation Xrotation Yrotation
    JOINT chest
    {
      OFFSET 0 11.7043 -0.48768
      CHANNELS 3 Zrotation Xrotation Yrotation
      JOINT neck
      {
        OFFSET 0 22.1894 -2.19456
        CHANNELS 3 Zrotation Xrotation Yrotation
        JOINT head
        {
          OFFSET -0.24384 7.07133 1.2192
          CHANNELS 3 Zrotation Xrotation Yrotation
          JOINT leftEye
          {
            OFFSET 4.14528 8.04674 8.04672
            CHANNELS 3 Zrotation Xrotation Yrotation
            End Site
            {
              OFFSET 1 0 0
            }
          }
          JOINT rightEye
          {
            OFFSET -3.6576 8.04674 8.04672
            CHANNELS 3 Zrotation Xrotation Yrotation
            End Site
            {
              OFFSET 1 0 0
            }
          }
        }
      }
      JOINT rCollar
      {
        OFFSET -2.68224 19.2634 -4.8768
        CHANNELS 3 Zrotation Xrotation Yrotation
        JOINT rShldr
        {
          OFFSET -8.77824 -1.95073 1.46304
          CHANNELS 3 Zrotation Xrotation Yrotation
          JOINT rForeArm
          {
            OFFSET -28.1742 -1.7115 0.48768
            CHANNELS 3 Zrotation Xrotation Yrotation
            JOINT rHand
            {
              OFFSET -22.5879 0.773209 7.07136
              CHANNELS 3 Zrotation Xrotation Yrotation
              JOINT rThumb1
              {
                OFFSET -1.2192 -0.487915 3.41376
                CHANNELS 3 Zrotation Xrotation Yrotation
                JOINT rThumb2
                {
                  OFFSET -3.37035 -0.52449 3.41376
                  CHANNELS 3 Zrotation Xrotation Yrotation
                  End Site
                  {
                    OFFSET -1.78271 -1.18214 1.43049
                  }
                }
              }
              JOINT rIndex1
              {
                OFFSET -7.75947 0.938293 5.60832
                CHANNELS 3 Zrotation Xrotation Yrotation
                JOINT rIndex2
                {
                  OFFSET -2.54057 -0.884171 1.56538
                  CHANNELS 3 Zrotation Xrotation Yrotation
                  End Site
                  {
                    OFFSET -1.62519 -0.234802 1.16502
                  }
                }
              }
              JOINT rMid1
              {
                OFFSET -8.24714 1.18213 3.41376
                CHANNELS 3 Zrotation Xrotation Yrotation
                JOINT rMid2
                {
                  OFFSET -3.10165 -0.590103 1.0647
                  CHANNELS 3 Zrotation Xrotation Yrotation
                  End Site
                  {
                    OFFSET -2.48547 -0.328903 0.83742
                  }
                }
              }
              JOINT rRing1
              {
                OFFSET -8.82822 0.546677 1.51678
                CHANNELS 3 Zrotation Xrotation Yrotation
                JOINT rRing2
                {
                  OFFSET -2.60934 -0.819778 -0.0198488
                  CHANNELS 3 Zrotation Xrotation Yrotation
                  End Site
                  {
                    OFFSET -2.33842 -0.294052 0.168128
                  }
                }
              }
              JOINT rPinky1
              {
                OFFSET -8.27202 -0.0477905 -0.4584
                CHANNELS 3 Zrotation Xrotation Yrotation
                JOINT rPinky2
                {
                  OFFSET -1.82734 -0.647385 -0.700984
                  CHANNELS 3 Zrotation Xrotation Yrotation
                  End Site
                  {
                    OFFSET -1.69225 -0.51767 -0.607171
                  }
                }
              }
            }
          }
        }
      }
      JOINT lCollar
      {
        OFFSET 2.68224 19.2634 -4.8768
        CHANNELS 3 Zrotation Xrotation Yrotation
        JOINT lShldr
        {
          OFFSET 8.77824 -1.95073 1.46304
          CHANNELS 3 Zrotation Xrotation Yrotation
          JOINT lForeArm
          {
            OFFSET 28.1742 -1.7115 0.48768
            CHANNELS 3 Zrotation Xrotation Yrotation
            JOINT lHand
            {
              OFFSET 22.5879 0.773209 7.07136
              CHANNELS 3 Zrotation Xrotation Yrotation
              JOINT lThumb1
              {
                OFFSET 1.2192 -0.487915 3.41376
                CHANNELS 3 Zrotation Xrotation Yrotation
                JOINT lThumb2
                {
                  OFFSET 3.37035 -0.52449 3.41376
                  CHANNELS 3 Zrotation Xrotation Yrotation
                  End Site
                  {
                    OFFSET 1.78271 -1.18214 1.43049
                  }
                }
              }
              JOINT lIndex1
              {
                OFFSET 7.75947 0.938293 5.60832
                CHANNELS 3 Zrotation Xrotation Yrotation
                JOINT lIndex2
                {
                  OFFSET 2.54057 -0.884171 1.56538
                  CHANNELS 3 Zrotation Xrotation Yrotation
                  End Site
                  {
                    OFFSET 1.62519 -0.234802 1.16502
                  }
                }
              }
              JOINT lMid1
              {
                OFFSET 8.24714 1.18213 3.41376
                CHANNELS 3 Zrotation Xrotation Yrotation
                JOINT lMid2
                {
                  OFFSET 3.10165 -0.590103 1.0647
                  CHANNELS 3 Zrotation Xrotation Yrotation
                  End Site
                  {
                    OFFSET 2.48547 -0.328903 0.83742
                  }
                }
              }
              JOINT lRing1
              {
                OFFSET 8.82822 0.546677 1.51678
                CHANNELS 3 Zrotation Xrotation Yrotation
                JOINT lRing2
                {
                  OFFSET 2.60934 -0.819778 -0.0198488
                  CHANNELS 3 Zrotation Xrotation Yrotation
                  End Site
                  {
                    OFFSET 2.33842 -0.294052 0.168128
                  }
                }
              }
              JOINT lPinky1
              {
                OFFSET 8.27202 -0.0477905 -0.4584
                CHANNELS 3 Zrotation Xrotation Yrotation
                JOINT lPinky2
                {
                  OFFSET 1.82734 -0.647385 -0.700984
                  CHANNELS 3 Zrotation Xrotation Yrotation
                  End Site
                  {
                    OFFSET 1.69225 -0.51767 -0.607171
                  }
                }
              }
            }
          }
        }
      }
    }
  }
  JOINT rButtock
  {
    OFFSET -8.77824 4.35084 1.2192
    CHANNELS 3 Zrotation Xrotation Yrotation
    JOINT rThigh
    {
      OFFSET 0 -1.70687 -2.19456
      CHANNELS 3 Zrotation Xrotation Yrotation
      JOINT rShin
      {
        OFFSET 0 -36.8199 0.73152
        CHANNELS 3 Zrotation Xrotation Yrotation
        JOINT rFoot
        {
          OFFSET 0.73152 -45.1104 -5.12064
          CHANNELS 3 Zrotation Xrotation Yrotation
          End Site
          {
            OFFSET -1.1221 -3.69964 12.103
          }
        }
      }
    }
  }
  JOINT lButtock
  {
    OFFSET 8.77824 4.35084 1.2192
    CHANNELS 3 Zrotation Xrotation Yrotation
    JOINT lThigh
    {
      OFFSET 0 -1.70687 -2.19456
      CHANNELS 3 Zrotation Xrotation Yrotation
      JOINT lShin
      {
        OFFSET 0 -36.8199 0.73152
        CHANNELS 3 Zrotation Xrotation Yrotation
        JOINT lFoot
        {
          OFFSET -0.73152 -45.1104 -5.12064
          CHANNELS 3 Zrotation Xrotation Yrotation
          End Site
          {
            OFFSET 1.1221 -3.69964 12.103
          }
        }
      }
    }
  }
}
MOTION
Frames:	7
Frame Time:	0.03333
0.0 0.0 0.0 0.0 0.0 0.0 0.0 0.0 0.0 0.0 0.0 0.0 0.0 0.0 0.0 0.0 0.0 0.0 0.0 0.0 0.0 0.0 0.0 0.0 0.0 0.0 0.0 0.0 0.0 0.0 0.0 0.0 0.0 0.0 0.0 0.0 0.0 0.0 0.0 0.0 0.0 0.0 0.0 0.0 0.0 0.0 0.0 0.0 0.0 0.0 0.0 0.0 0.0 0.0 0.0 0.0 0.0 0.0 0.0 0.0 0.0 0.0 0.0 0.0 0.0 0.0 0.0 0.0 0.0 0.0 0.0 0.0 0.0 0.0 0.0 0.0 0.0 0.0 0.0 0.0 0.0 0.0 0.0 0.0 0.0 0.0 0.0 0.0 0.0 0.0 0.0 0.0 0.0 0.0 0.0 0.0 0.0 0.0 0.0 0.0 0.0 0.0 0.0 0.0 0.0 0.0 0.0 0.0 0.0 0.0 0.0 0.0 0.0 0.0 0.0 0.0 0.0 0.0 0.0 0.0 0.0 0.0 0.0 0.0 0.0 0.0 0.0 0.0 0.0 0.0 0.0 0.0
-0.0237 17.3183 0.056499999999999995 -0.425475 -66.57903 -0.14436 -0.691367 5.138027 23.844998 -17.216349 -25.529064 42.563266 -167.286831 -1.992299 -89.667995 -49.493018 -78.848859 -144.181638 -7.48709 -0.386228 5.897703 -6.352167 -0.264384 4.761811 -54.289909 7.692754 -176.51555 7.283201 7.191823 -1.894631 -96.191909 86.026947 -98.80517 -171.142546 53.446027 17.366879 38.599464 46.207305 -87.729825 -148.933143 -21.477534 103.777332 -177.442022 37.117325 -179.05977 -87.348165 49.622082 67.659621 -6.713755 -6.056372 -58.406626 24.783099 -49.334917 3.687601 55.629194 66.014987 -53.170213 8.843713 42.705387 3.153418 12.80477 34.794306 -11.450388 -84.79885 -53.012089 -84.729798 -49.424529 -2.287363 9.237491 -87.926969 -86.959064 -73.899262 176.446979 -13.663924 27.381417 -5.134087 -13.436858 138.690913 5.385107 -0.4517 40.931394 177.885724 -77.93745 -127.069206 163.754159 22.172249 -152.675904 62.17443 52.210209 -49.613364 71.976847 -71.113754 93.001078 165.396535 -4.927053 -140.690243 18.296847 -11.683084 9.58246 -8.982174 29.735311 4.278653 102.90039 -60.116105 83.280106 11.763301 -29.160762 11.806008 -5.773721 -42.740302 1.540352 12.054796 42.572501 -0.0 -6.166299 6.271387 -106.884146 92.597963 -17.917597 -87.232797 57.707096 37.485306 104.96376 -12.872595 67.858843 7.658606 10.574054 -7.977427 53.828953 158.193405 53.258488 139.965026
-0.021 32.539 -0.016 174.285333 -1.0008 -174.222827 -22.039661 19.775713 6.898199 -32.583113 -64.285746 -9.354643 163.557951 72.901493 -93.619171 -20.708065 -22.753346 -123.196887 -49.153885 -2.768886 6.04976 -44.426294 -6.408761 15.612944 53.602789 -14.377743 -50.714993 44.001504 18.383719 14.256651 -82.853545 -37.626217 65.928579 64.507494 -48.186556 48.129404 -179.495949 -44.167023 86.290097 -80.861145 47.287077 -14.511674 -75.44582 -3.411538 134.883346 -116.752405 42.727074 33.767415 37.716729 -73.63918 -113.024237 -166.11155 -5.314977 145.951917 105.820239 -9.42846 -24.967845 -10.17873 -87.616991 -43.901114 -19.87129 -0.129312 -149.58672 -149.375387 50.730009 -165.594599 150.023203 30.076294 -146.918818 105.655104 13.220031 -110.710092 85.116943 66.747706 130.678155 107.97763 -86.89332 176.000063 170.699016 -60.040922 -134.766747 25.518049 -43.262059 -8.210349 -90.161448 72.477572 116.326947 135.992397 -10.909111 -131.864311 174.979245 1.595988 162.074505 152.850455 16.642792 -144.988658 -99.291101 68.961627 100.503083 7.806184 42.97767 -21.292546 -50.541233 47.370966 64.70942 73.209102 68.465296 -112.242428 -79.749117 17.825296 -39.007746 124.011862 -14.041408 82.657291 81.806938 38.121832 140.025552 32.974612 0.020536 95.341032 -150.694435 77.127017 -0.0 96.394931 21.203046 14.769198 -39.342268 54.296967 140.442921 -149.896528 -1.288821 -19.300299
-0.025 27.292699999999996 0.1557 171.699997 -5.669659 -168.909755 -37.22573 22.983308 62.799713 -57.693412 -23.319051 -63.731965 -156.906061 36.367612 156.225686 63.944271 -48.815916 4.971599 -44.976901 6.155802 -14.80135 -35.303646 2.212934 -6.946566 -50.38918 -40.827299 -137.691974 -83.987857 -53.27043 -95.998271 -148.58711 -13.03884 -68.717782 37.9514 -14.233173 4.264385 29.11721 25.173476 -14.830077 -80.773658 -51.104344 161.98529 -101.143884 74.237951 165.650461 -75.262793 21.684098 53.759933 127.602942 64.001432 -46.602935 15.074274 -34.155029 7.212752 35.890125 -46.802171 -70.593645 -150.210113 22.951231 161.398167 99.455441 4.226976 -37.412041 -9.733582 9.910174 40.831591 152.870584 -66.46374 -178.995346 139.24348 -80.322201 110.446549 4.171021 71.200174 149.903194 162.851839 18.451554 -98.812509 -85.223822 -86.198872 -25.168081 -151.050515 -31.663593 -143.122928 -100.791116 66.425846 109.551716 141.435618 -74.764625 -118.548996 162.485089 46.896028 168.538062 142.369911 -5.927442 -147.053314 4.653292 4.172617 38.812886 -7.643228 -62.526929 12.183338 136.7079 7.099573 99.395921 155.445561 19.772197 122.958429 106.103753 71.921861 32.554365 -126.541205 -15.744678 111.697194 77.497129 -53.193072 13.336926 100.953736 34.557203 118.743499 -141.315278 73.380515 -25.337794 102.739884 36.51077 -180.0 55.442857 -50.81803 54.367446 -177.96244 34.850127 64.917176
0.21280000000000002 26.721899999999998 0.4126 172.682589 -15.479894 -167.3131 -38.596989 41.44428 -69.576368 69.674979 -18.492522 95.088625 -175.912091 32.958872 -92.223302 -97.544975 -16.801817 -131.435221 -56.846323 -0.858763 1.586644 -47.744082 2.121503 -4.79151 -60.764726 -29.143089 -156.680473 -81.679996 -58.636797 -97.692842 -167.550629 -51.663695 -78.004837 15.234697 17.832998 -4.470881 93.831475 -49.276373 -0.093961 -125.141613 -69.851334 -173.324982 -78.799365 -48.34575 137.800608 81.778053 -67.515076 69.385779 -59.862283 -33.13506 165.868584 2.776371 -12.355424 -0.387192 90.238026 1.517547 -0.813976 -172.350696 -23.28579 -154.658946 -60.529578 71.658737 -179.400403 -25.928763 56.374762 58.817281 155.209436 8.712668 -155.874888 -130.308153 -29.792883 -138.75659 6.303924 -0.850771 -125.565029 -6.608068 -22.913139 28.420336 -30.470837 10.952403 22.744697 85.522478 86.060594 -74.255841 -107.52488 58.351462 81.768268 128.100503 -0.262721 -103.692622 -74.744758 43.667976 59.739379 -13.720238 -44.108963 6.338723 28.375374 -42.276395 70.414899 40.592567 58.665607 -25.566158 30.076467 -24.416431 71.590941 14.723904 -34.75133 -9.727746 -8.972544 4.219964 12.345514 49.5711 -58.88671 -57.859937 -75.122757 -1.081744 -170.87424 88.157378 63.296903 108.824189 -100.502002 61.515372 -41.431248 90.676223 18.338239 -1.257338 -29.078299 53.143316 91.094625 100.042003 13.083121 3.400777
0.996 31.3244 0.0888 172.462841 -35.943079 -163.502026 -58.697397 67.217004 -119.276248 98.225027 46.327449 82.789956 -158.169083 38.723999 -9.418651 -121.80813 77.479907 -102.798555 -50.197794 -6.322805 13.450028 -52.835001 3.542762 -7.124456 -172.917599 82.960814 -107.653141 -129.980751 64.687481 104.245703 -162.552353 17.478669 -101.657106 10.034718 19.301866 5.94921 -2.270247 46.322614 32.732346 20.401506 -44.353181 -14.154247 81.223348 -3.097923 10.285129 -139.138566 -0.51599 154.504444 25.001876 53.634687 57.288654 -171.420589 -60.669308 137.116635 -63.434329 -6.206189 172.994412 -29.585257 55.628666 43.831865 69.497033 -38.760352 24.077823 -146.378803 34.208007 -96.816926 28.684082 32.622554 -16.349259 119.285248 -29.511408 -149.633056 -175.570379 -20.508301 59.706899 -8.126225 15.352639 15.022523 -177.071883 -44.225728 -59.371648 -155.430466 -44.916158 -171.875409 61.752483 10.833233 -164.144474 138.336469 9.484357 -136.246343 78.383856 -24.574902 164.020856 5.274671 -0.109682 17.612247 122.342636 -9.922604 -167.551203 160.890797 6.051809 -100.746349 -49.244533 -8.271698 5.307291 101.017702 -21.203073 85.387984 72.118639 60.007925 52.365047 -107.974117 -19.01749 -48.388127 -39.934081 67.025126 -11.298014 -146.868768 19.124816 -0.953694 108.216487 42.140876 44.958966 -163.837781 21.854873 142.098289 50.077168 -81.574179 -17.867505 -47.675997 -25.289285 -56.222979
2.2596000000000003 48.0211 -2.0635 171.645731 -56.565855 -161.691748 -140.147169 61.209765 -35.412711 -174.6007 9.503365 -19.500883 161.415345 -18.375886 -46.896061 -169.240072 59.524232 -53.869151 -51.346983 -3.852934 8.005267 -63.167748 6.669666 -10.82815 -160.645002 29.862199 -173.957859 -26.86689 23.757015 11.777052 167.786389 -59.94245 -107.549745 2.901988 34.657971 11.271342 -12.004924 46.996785 26.297376 -11.103535 32.816755 22.186576 -121.919141 -57.778065 113.699567 -109.248613 65.268658 60.710187 50.952067 -15.058882 5.489637 -47.510249 -68.725858 -124.561611 80.867872 5.884219 -10.33801 53.044985 -69.626595 27.956723 49.351742 0.965903 18.90827 46.723254 -42.431347 -21.509957 87.609012 -32.574725 142.587433 -134.453808 5.724293 155.509811 -174.529809 -28.021121 -16.634167 -135.34108 12.460129 -164.214528 -37.002973 -4.9982 -5.29902 -27.938528 -5.78913 9.881657 -33.285178 58.497141 -30.566292 -161.44932 5.918751 171.285066 17.942001 -57.062377 105.613049 -71.069519 -76.404433 90.628453 42.161244 -3.833584 -4.273485 33.588529 -40.927579 -158.105008 110.528833 -0.107381 168.431663 162.898411 13.458514 -175.750224 -65.000925 4.674417 -24.82824 112.857999 -18.099734 -144.775773 46.021232 -73.47204 136.500249 79.456801 9.437526 28.039907 -27.427621 23.798617 -39.59992 42.661124 -63.452954 -180.0 99.173678 -74.655884 -156.142253 89.897085 -10.728993 116.112597
